<?xml version="1.0" encoding="UTF-8" standalone="no" ?>
<!DOCTYPE svg PUBLIC "-//W3C//DTD SVG 1.1//EN" "http://www.w3.org/Graphics/SVG/1.1/DTD/svg11.dtd">
<svg xmlns="http://www.w3.org/2000/svg" xmlns:xlink="http://www.w3.org/1999/xlink" version="1.1" width="1080" height="1080" viewBox="0 0 1080 1080" xml:space="preserve">
<desc>Created with Fabric.js 5.2.4</desc>
<defs>
</defs>
<g transform="matrix(1 0 0 1 540 540)" id="90176793-1c3a-4b56-af23-b3cef225d9da"  >
<rect style="stroke: none; stroke-width: 1; stroke-dasharray: none; stroke-linecap: butt; stroke-dashoffset: 0; stroke-linejoin: miter; stroke-miterlimit: 4; fill: rgb(255,255,255); fill-rule: nonzero; opacity: 1; visibility: hidden;" vector-effect="non-scaling-stroke"  x="-540" y="-540" rx="0" ry="0" width="1080" height="1080" />
</g>
<g transform="matrix(1 0 0 1 540 540)" id="8785698f-08f4-4a7d-828b-19bdcd516e45"  >
</g>
<g transform="matrix(1 0 0 1 540 540)"  >
<g style="" vector-effect="non-scaling-stroke"   >
		<g transform="matrix(2.88 0 0 2.88 0 0)"  >
<path style="stroke: none; stroke-width: 1; stroke-dasharray: none; stroke-linecap: butt; stroke-dashoffset: 0; stroke-linejoin: miter; stroke-miterlimit: 4; fill: rgb(255,255,255); fill-rule: nonzero; opacity: 1;" vector-effect="non-scaling-stroke"  transform=" translate(-139.13, -139.13)" d="M 244.264 111.572 C 244.264 86.54400000000001 223.9 66.18 198.872 66.18 C 175.288 66.18 155.94 84.292 153.78400000000002 107.32400000000001 L 146.92000000000002 107.32400000000001 L 150.28000000000003 95.51600000000002 L 153.26800000000003 85.02000000000002 L 153.26400000000004 85.01600000000002 L 156.25600000000003 74.49600000000002 L 162.30400000000003 53.24000000000002 L 162.30400000000003 53.236000000000026 L 165.00000000000003 43.75600000000003 L 170.60400000000004 24.05600000000003 L 170.60400000000004 24.052000000000028 L 176.59200000000004 2.996000000000027 L 166.06 0 L 165.712 1.24 L 135.18 107.324 L 110.24000000000001 107.324 L 94.876 78.38 L 134.388 57.39999999999999 L 81.504 53.19199999999999 L 76.86800000000001 44.459999999999994 L 76.388 43.559999999999995 L 71.68400000000001 46.059999999999995 L 76.796 55.687999999999995 L 50.656000000000006 101.852 L 90.168 80.872 L 104.208 107.32 L 100.916 107.32 L 100.444 107.604 C 74.21600000000001 123.416 57.924 154.072 57.924 187.60399999999998 C 57.924 189.15599999999998 58.016 190.67999999999998 58.092 192.212 C 48.54 191.136 41.184 193.316 40.70399999999999 193.464 L 39.267999999999994 193.904 L 39.79599999999999 195.316 C 40.14399999999999 196.252 48.49999999999999 218.188 64.844 228.93200000000002 C 61.44799999999999 229.616 58.00399999999999 230.66400000000002 54.74399999999999 232.23600000000002 C 39.69999999999999 239.48800000000003 34.672 254.82000000000002 34.46799999999999 255.46800000000002 L 33.99199999999999 256.97200000000004 L 35.53999999999999 257.288 C 35.943999999999996 257.372 41.05199999999999 258.37600000000003 47.94799999999999 258.37600000000003 C 54.523999999999994 258.37600000000003 62.715999999999994 257.46000000000004 70.00399999999999 253.94800000000004 C 70.43199999999999 253.74000000000004 70.82399999999998 253.50800000000004 71.228 253.28400000000005 C 73.16799999999999 255.71600000000004 76.076 257.40400000000005 79.41199999999999 257.84000000000003 C 79.764 257.884 80.13999999999999 257.908 80.532 257.908 C 82.112 257.908 84.012 257.504 86 256.848 C 85.624 258.968 85.496 260.93600000000004 85.772 262.408 C 86.64800000000001 267.064 89.748 270.46000000000004 94.06400000000001 271.488 C 94.91600000000001 271.692 95.784 271.788 96.644 271.788 C 99.156 271.788 101.616 270.896 103.712 269.36 C 114.172 275.024 125.852 278.25600000000003 138.212 278.25600000000003 C 182.48 278.25600000000003 218.49599999999998 237.59200000000004 218.49599999999998 187.61200000000002 C 218.49599999999998 176.12800000000001 216.54399999999998 165.00000000000003 212.97599999999997 154.668 C 231.112 148.724 244.264 131.672 244.264 111.572 z M 173.096 4.956 L 172.3 7.756 C 171.568 6.532 170.836 5.316000000000001 170.084 4.1 L 173.096 4.956 z M 167.484 5.364 C 168.74800000000002 7.416 170.01600000000002 9.463999999999999 171.22400000000002 11.54 L 168.70000000000002 20.412 C 167.54800000000003 18.244 166.34 16.052 165.04800000000003 13.835999999999999 L 167.484 5.364 z M 163.992 17.68 C 165.26399999999998 19.932 166.468 22.168 167.576 24.348 L 164.35999999999999 35.664 L 164.26799999999997 35.984 C 163.09999999999997 33.668 161.93199999999996 31.348000000000003 160.75999999999996 29.036 L 163.992 17.68 z M 159.548 32.932 C 160.74 35.292 161.932 37.652 163.12 40.016000000000005 L 160.424 49.492000000000004 L 156.84 42.34400000000001 L 159.548 32.932 z M 155.78 46.548 L 159.276 53.52 L 155.34400000000002 67.35600000000001 C 154.18800000000002 65.08000000000001 153.00000000000003 62.81600000000001 151.788 60.56800000000001 L 155.78 46.548 z M 150.52 64.304 C 151.764 66.664 153.012 69.02 154.192 71.412 L 151.46 81.012 C 150.328 78.54 149.148 76.032 147.88 73.472 L 150.52 64.304 z M 146.872 77.86 C 148.08 80.364 149.21200000000002 82.832 150.264 85.228 L 149.73600000000002 87.088 L 145.98800000000003 100.24 C 144.81200000000004 97.93599999999999 143.64000000000001 95.63199999999999 142.47600000000003 93.32 L 146.872 77.86 z M 141.128 96.92 C 142.36399999999998 99.36 143.6 101.8 144.85199999999998 104.236 L 143.97199999999998 107.328 L 138.13199999999998 107.328 L 141.128 96.92 z M 158.108 111.296 L 165.484 141.372 L 164.792 142.02800000000002 C 157.484 148.95200000000003 148.04 152.76800000000003 138.208 152.76800000000003 C 128.168 152.76800000000003 118.612 148.82000000000002 111.252 141.65600000000003 L 118.696 111.29600000000003 L 158.108 111.29600000000003 z M 174.392 111.3 L 174.392 111.29599999999999 C 190.12 120.93599999999999 202.036 136.232 208.652 154.28799999999998 C 194.944 158.60399999999998 179.504 154.88799999999998 169.45999999999998 144.844 L 168.308 143.692 C 167.796 143.184 167.316 142.66400000000002 166.83599999999998 142.132 L 159.27599999999998 111.30000000000001 L 174.392 111.30000000000001 z M 165.708 106.68 C 166.252 102.19200000000001 166.416 100.83600000000001 168.276 97.168 C 169.68 94.40400000000001 172.584 91.17200000000001 174.836 90.78 C 174.984 90.752 175.12800000000001 90.74 175.268 90.74 C 175.784 90.74 176.22 90.92399999999999 176.62 91.30399999999999 C 179 93.55599999999998 190.156 105.49599999999998 194.012 109.62799999999999 L 179.296 109.77999999999999 C 178.2 109.03999999999999 177.108 108.29199999999999 175.97199999999998 107.60799999999999 L 175.49999999999997 107.32399999999998 L 165.72799999999998 107.32399999999998 C 165.724 107.108 165.676 106.928 165.708 106.68 z M 184.28 113.416 C 188.216 113.512 191.924 113.612 194.08 113.676 L 189.77200000000002 118.132 C 188.016 116.472 186.172 114.912 184.28 113.416 z M 192.44 120.816 C 194.264 119.06400000000001 195.876 117.524 196.952 116.492 L 197.064 125.964 C 195.592 124.176 194.04 122.472 192.44 120.816 z M 200.612 130.58 C 200.728 125.19600000000001 200.884 119.38000000000001 200.968 116.424 L 219.04 134.264 C 219.05599999999998 134.276 220.26 135.34400000000002 220.236 136.608 C 220.224 137.336 219.792 138.04 218.952 138.704 C 215.428 141.496 214.368 142.336 210.496 143.608 C 209.912 143.8 209.264 143.94400000000002 208.60000000000002 144.068 C 206.288 139.32 203.636 134.796 200.612 130.58 z M 74.444 46.908 L 75.544 46.324 L 79.092 53.004 L 78.356 52.943999999999996 L 77.99199999999999 53.587999999999994 L 74.444 46.908 z M 73.856 86.336 L 79.788 67.864 C 79.884 67.568 79.72 67.248 79.42 67.152 C 79.144 67.056 78.808 67.22 78.708 67.52 L 72.524 86.768 C 72.496 86.856 72.532 86.94 72.544 87.028 L 57.916 94.796 L 79.93199999999999 55.912000000000006 L 124.47599999999998 59.456 L 109.65599999999998 67.324 L 94.05199999999998 61.611999999999995 C 93.75199999999998 61.507999999999996 93.43199999999997 61.647999999999996 93.32399999999998 61.94799999999999 C 93.21599999999998 62.239999999999995 93.36799999999998 62.56799999999999 93.65999999999998 62.675999999999995 L 108.31199999999998 68.03999999999999 L 92.21199999999999 76.588 L 85.84799999999998 64.87599999999999 C 85.69199999999998 64.59599999999999 85.34799999999998 64.508 85.07999999999998 64.64399999999999 C 84.80399999999999 64.79599999999999 84.69999999999999 65.13999999999999 84.84799999999998 65.41199999999999 L 91.21199999999999 77.11999999999999 L 73.856 86.336 z M 91.972 79.92 L 93.076 79.336 L 107.93599999999999 107.324 L 106.52399999999999 107.324 L 91.972 79.92 z M 102.024 111.296 L 117.524 111.296 L 110.304 140.74 L 109.932 140.372 L 108.944 141.52800000000002 C 108.308 142.27200000000002 107.652 142.996 106.952 143.692 C 99.724 150.924 89.708 155.072 79.484 155.072 L 78.332 155.072 C 74.86 155.072 71.392 154.564 67.996 153.616 C 74.66 135.848 86.488 120.816 102.024 111.296 z M 74.78 200.988 C 80.328 204.56 84.896 209.608 88.576 214.664 C 88.32 214.54799999999997 88.056 214.408 87.812 214.32399999999998 C 83.48 212.79999999999998 79.16 213.7 76.124 216.672 L 43.54 195.7 C 48.544 194.672 62.232 192.912 74.78 200.988 z M 95.272 226.472 C 95.232 226.548 95.176 226.604 95.14 226.68 C 95.012 226.95600000000002 94.976 227.276 94.888 227.572 C 93.884 227.16400000000002 92.85600000000001 226.912 91.828 227.052 C 90.4 227.25199999999998 88.396 228.10399999999998 86.968 231.048 C 86.57600000000001 231.86 86.388 232.66400000000002 86.292 233.456 C 85.06 233.536 83.836 233.7 82.636 233.916 C 80.10799999999999 232.132 78.068 230.108 77.38 228.448 C 76.076 225.316 76.58399999999999 221.96800000000002 78.71199999999999 219.716 C 80.03599999999999 218.312 81.75999999999999 217.592 83.65199999999999 217.592 C 84.56799999999998 217.592 85.51599999999999 217.76000000000002 86.48399999999998 218.10000000000002 C 89 218.984 92.74 222.528 95.272 226.472 z M 91.992 216.828 C 92.19200000000001 216.876 92.39200000000001 216.90800000000002 92.584 216.976 C 92.56400000000001 217.076 92.54 217.164 92.516 217.26 C 92.34 217.112 92.168 216.968 91.992 216.828 z M 114.368 231.036 C 113.872 230.3 113.28 229.744 112.652 229.268 C 113.208 228.136 113.688 226.972 114.1 225.8 C 116.892 224.524 119.64399999999999 223.78400000000002 121.416 224.02800000000002 C 124.78399999999999 224.46400000000003 127.428 226.58400000000003 128.316 229.55200000000002 C 129.132 232.28400000000002 128.224 235.032 125.824 237.092 C 123.804 238.828 118.872 240.312 114.192 240.54000000000002 C 114.14399999999999 240.46400000000003 114.124 240.38400000000001 114.07199999999999 240.30800000000002 C 113.89599999999999 240.056 113.63199999999999 239.86 113.41599999999998 239.63200000000003 C 114.27599999999998 238.96400000000003 115.01199999999999 238.19600000000003 115.39999999999998 237.24400000000003 C 115.948 235.908 116.208 233.744 114.368 231.036 z M 112.78 236.18 C 112.496 236.88 111.836 237.452 111.028 237.904 C 109.632 237.268 108.04 236.952 106.47200000000001 237.12 C 105.86000000000001 237.184 105.28800000000001 237.32 104.75600000000001 237.512 C 103.86000000000001 236.288 104.25600000000001 234.892 104.57600000000001 234.168 C 105.35600000000001 232.392 107.132 231 108.796 230.848 C 110.052 230.728 111.144 231.336 112.028 232.632 C 112.94 233.972 113.192 235.168 112.78 236.18 z M 101.976 233.016 C 101.728 233.572 101.56 234.132 101.46 234.688 C 101.324 234.664 101.18799999999999 234.688 101.04799999999999 234.676 C 99.74399999999999 234.636 98.89199999999998 233.76 98.46799999999999 233.184 C 97.32799999999999 231.62 97.01199999999999 229.384 97.716 227.868 C 98.24799999999999 226.716 99.30799999999999 226.076 100.872 225.96 C 101.068 225.94400000000002 101.256 225.936 101.43599999999999 225.936 C 102.75999999999999 225.936 103.732 226.324 104.324 227.084 C 104.788 227.68 104.96 228.536 104.94 229.464 C 103.684 230.36 102.612 231.584 101.976 233.016 z M 102.412 239.08 C 102.02000000000001 239.50400000000002 101.688 239.976 101.436 240.51600000000002 C 100.87200000000001 240.39200000000002 100.292 240.34000000000003 99.69200000000001 240.4 C 99.52000000000001 239.848 99.27600000000001 239.32 98.92800000000001 238.828 C 99.31600000000002 238.40800000000002 99.64800000000001 237.936 99.9 237.4 C 100.304 237.49200000000002 100.71600000000001 237.556 101.13600000000001 237.556 C 101.308 237.556 101.48 237.54000000000002 101.656 237.524 C 101.828 238.072 102.072 238.596 102.412 239.08 z M 99.368 244.892 C 99.616 244.332 99.788 243.768 99.88799999999999 243.212 C 99.93199999999999 243.208 99.96799999999999 243.224 100.01199999999999 243.22 C 100.23199999999999 243.252 100.44399999999999 243.312 100.66399999999999 243.312 C 100.75599999999999 243.312 100.85199999999999 243.288 100.948 243.28 C 101.89999999999999 243.532 102.52399999999999 244.248 102.872 244.724 C 104.016 246.292 104.332 248.524 103.628 250.04399999999998 C 103.096 251.19199999999998 102.032 251.832 100.468 251.94799999999998 C 98.82000000000001 252.07599999999996 97.69200000000001 251.688 97.024 250.82799999999997 C 96.56 250.23199999999997 96.392 249.37199999999999 96.408 248.44799999999998 C 97.66 247.552 98.732 246.328 99.368 244.892 z M 103.968 241.76 C 104.016 241.652 104.08800000000001 241.588 104.144 241.492 C 104.20400000000001 241.408 104.30000000000001 241.35999999999999 104.352 241.268 C 104.396 241.2 104.4 241.116 104.436 241.044 C 105.13600000000001 240.256 106.14 240 106.76400000000001 239.93200000000002 C 108.70800000000001 239.72400000000002 110.78800000000001 240.572 111.748 241.936 C 112.48 242.972 112.5 244.21200000000002 111.816 245.624 C 111.11200000000001 247.07999999999998 110.20400000000001 247.896 109.12 248.04399999999998 C 108.372 248.164 107.54400000000001 247.91199999999998 106.756 247.42799999999997 C 106.616 245.88399999999996 106.092 244.32799999999997 105.164 243.05199999999996 C 104.8 242.556 104.4 242.128 103.968 241.76 z M 108.792 228.036 C 108.708 228.04 108.628 228.016 108.544 228.024 C 108.244 228.052 107.952 228.18 107.65599999999999 228.248 C 107.50399999999999 227.172 107.18799999999999 226.15599999999998 106.55999999999999 225.34799999999998 C 105.67599999999999 224.20399999999998 103.97599999999998 222.892 100.66399999999999 223.13199999999998 C 99.77999999999999 223.19599999999997 99.00399999999999 223.42799999999997 98.28399999999999 223.73199999999997 C 97.58399999999999 222.68799999999996 96.81599999999999 221.69999999999996 96.01199999999999 220.75999999999996 C 96.30799999999999 217.69599999999997 97.04799999999999 214.93599999999995 98.12799999999999 213.51999999999995 C 100.18799999999999 210.81999999999996 103.34799999999998 209.58799999999997 106.35599999999998 210.31199999999995 C 109.13199999999998 210.97199999999995 111.05999999999997 213.13199999999995 111.64399999999998 216.23199999999994 C 112.132 218.864 110.936 223.872 108.792 228.036 z M 96.176 234.86 C 96.54 235.35600000000002 96.94800000000001 235.768 97.384 236.132 C 97.336 236.244 97.26 236.308 97.2 236.40800000000002 C 97.13600000000001 236.496 97.036 236.548 96.98 236.644 C 96.936 236.716 96.932 236.804 96.888 236.88 C 96.19200000000001 237.66 95.19600000000001 237.912 94.56800000000001 237.976 C 92.66400000000002 238.212 90.55600000000001 237.336 89.58800000000001 235.972 C 88.85600000000001 234.936 88.83600000000001 233.696 89.52000000000001 232.28400000000002 C 90.224 230.82800000000003 91.12800000000001 230.01200000000003 92.21200000000002 229.86400000000003 C 92.33600000000001 229.84800000000004 92.46000000000002 229.84000000000003 92.58800000000002 229.84000000000003 C 93.23600000000002 229.84000000000003 93.92000000000002 230.12400000000002 94.58400000000002 230.52800000000002 C 94.732 232.06 95.256 233.596 96.176 234.86 z M 43.628 197.112 L 53.532 203.488 L 48.156 205.908 C 46.088 202.36 44.572 199.224 43.628 197.112 z M 48.736 206.884 L 54.668 204.21599999999998 L 61.22 208.432 L 52.536 212.67999999999998 C 51.12 210.712 49.86 208.756 48.736 206.884 z M 53.22 213.608 L 62.332 209.148 L 70.236 214.236 L 59.132000000000005 220.54399999999998 C 56.952 218.344 54.984 215.988 53.22 213.608 z M 59.964 221.376 L 71.312 214.928 L 75.348 217.524 C 73 220.36 72.16 224.22 73.04 227.952 C 71.82400000000001 228.02 70.608 228.10399999999998 69.33600000000001 228.248 C 68.45600000000002 227.792 67.57200000000002 227.344 66.70000000000002 226.784 C 64.28 225.224 62.036 223.38 59.964 221.376 z M 46.368 255.492 C 43.408 255.428 40.884 255.188 39.072 254.964 L 47.232 251.028 L 46.368 255.492 z M 47.52 255.504 L 48.508 250.41199999999998 L 54.136 247.7 L 52.904 255.32799999999997 C 51.02 255.472 49.22 255.516 47.52 255.504 z M 61.188 254.04 C 58.792 254.62 56.392 254.992 54.068000000000005 255.21599999999998 L 55.38 247.09999999999997 L 62.236000000000004 243.79199999999997 L 61.188 254.04 z M 70.668 240.276 C 68.80000000000001 243.01600000000002 68.244 246.292 69.19600000000001 249.49200000000002 C 69.21200000000002 249.54800000000003 69.24000000000001 249.60000000000002 69.26 249.66000000000003 L 69.02000000000001 251.26000000000002 C 68.93200000000002 251.30400000000003 68.85600000000001 251.35600000000002 68.76800000000001 251.39600000000002 C 66.70000000000002 252.39200000000002 64.54000000000002 253.156 62.356000000000016 253.74800000000002 L 63.436000000000014 243.216 L 70.75600000000001 239.684 L 70.668 240.276 z M 38.02 254.208 C 39.892 249.904 45.172000000000004 240.004 55.980000000000004 234.796 C 61.828 231.97199999999998 68.39200000000001 231 74.128 230.77599999999998 C 74.884 232.164 76.112 233.64 77.69200000000001 235.07999999999998 L 75.792 235.99599999999998 C 75.776 236.004 75.756 236.01199999999997 75.74 236.01999999999998 L 38.02 254.208 z M 87.196 252.168 C 84.416 253.404 81.684 254.112 79.92 253.872 C 76.552 253.436 73.912 251.316 73.028 248.352 C 72.212 245.616 73.116 242.872 75.516 240.812 C 77.536 239.07600000000002 82.464 237.58800000000002 87.144 237.35600000000002 C 87.19600000000001 237.43600000000004 87.21600000000001 237.52400000000003 87.272 237.60000000000002 C 87.444 237.84400000000002 87.688 238.04000000000002 87.89200000000001 238.26000000000002 C 87.03600000000002 238.93200000000002 86.32000000000001 239.716 85.936 240.66400000000002 C 85.39200000000001 242.00000000000003 85.132 244.16000000000003 86.97200000000001 246.86800000000002 C 87.468 247.60000000000002 88.05600000000001 248.16000000000003 88.676 248.63600000000002 C 88.112 249.788 87.612 250.976 87.196 252.168 z M 88.564 241.732 C 88.848 241.04 89.484 240.46 90.288 240.008 C 91.432 240.532 92.716 240.84 94 240.84 C 94.292 240.84 94.584 240.824 94.876 240.792 C 95.48400000000001 240.728 96.05600000000001 240.592 96.58800000000001 240.4 C 97.48400000000001 241.624 97.09200000000001 243.02 96.772 243.74 C 95.992 245.51600000000002 94.21600000000001 246.912 92.548 247.06 C 91.252 247.144 90.196 246.572 89.316 245.276 C 88.404 243.936 88.152 242.744 88.564 241.732 z M 103.208 264.392 C 101.152 267.08 97.976 268.296 94.988 267.596 C 92.212 266.936 90.284 264.776 89.7 261.672 C 89.212 259.06 90.392 254.06000000000003 92.524 249.90000000000003 C 92.616 249.89600000000004 92.708 249.89600000000004 92.8 249.88800000000003 C 93.104 249.86000000000004 93.396 249.73200000000003 93.696 249.66000000000003 C 93.848 250.74000000000004 94.15599999999999 251.76000000000002 94.78399999999999 252.568 C 95.59599999999999 253.62 97.136 254.80800000000002 99.91199999999999 254.80800000000002 C 100.15599999999999 254.80800000000002 100.40799999999999 254.8 100.66799999999999 254.78000000000003 C 101.54799999999999 254.71600000000004 102.324 254.48800000000003 103.044 254.18800000000002 C 103.752 255.24 104.51599999999999 256.248 105.328 257.192 C 105.02 260.24 104.284 262.984 103.208 264.392 z M 106.2 251.236 C 106.324 250.97199999999998 106.35600000000001 250.664 106.444 250.38 C 107.20400000000001 250.688 107.976 250.912 108.748 250.912 C 109.004 250.912 109.26 250.892 109.512 250.856 C 110.94 250.66 112.94800000000001 249.804 114.376 246.85999999999999 C 114.76 246.064 114.952 245.27599999999998 115.048 244.49999999999997 C 116.304 244.41199999999998 117.552 244.25199999999998 118.772 244.02399999999997 C 121.26400000000001 245.81599999999997 123.284 247.82799999999997 123.964 249.46399999999997 C 125.268 252.59599999999998 124.756 255.94399999999996 122.632 258.19599999999997 C 120.67200000000001 260.272 117.836 260.852 114.86 259.808 C 112.344 258.924 108.6 255.388 106.064 251.44799999999998 C 106.1 251.372 106.164 251.316 106.2 251.236 z M 214.528 187.608 C 214.528 235.4 180.292 274.284 138.212 274.284 C 126.93999999999998 274.284 116.25199999999998 271.456 106.61599999999999 266.444 C 107.57199999999999 265.04400000000004 108.33199999999998 263.016 108.82399999999998 260.65200000000004 C 110.47599999999998 262.04 112.11599999999999 263.088 113.52799999999998 263.58400000000006 C 114.93199999999997 264.0760000000001 116.33199999999998 264.32000000000005 117.69199999999998 264.32000000000005 C 120.66799999999998 264.32000000000005 123.44399999999997 263.16 125.53599999999997 260.9440000000001 C 128.71599999999998 257.5800000000001 129.54799999999997 252.47200000000007 127.65599999999998 247.92800000000008 C 126.97599999999997 246.29600000000008 125.48799999999997 244.4720000000001 123.53599999999997 242.7400000000001 C 125.56399999999998 242.0040000000001 127.28799999999997 241.1120000000001 128.42399999999998 240.13600000000008 C 132.01999999999998 237.05200000000008 133.41199999999998 232.6680000000001 132.14399999999998 228.41600000000008 C 130.81999999999996 223.9840000000001 126.81199999999998 220.7040000000001 121.92799999999998 220.06800000000007 C 120.17599999999999 219.85600000000008 117.83999999999999 220.27200000000008 115.36399999999998 221.08400000000006 C 115.74799999999998 218.94400000000007 115.83999999999997 216.98400000000007 115.56399999999998 215.50000000000006 C 114.68799999999997 210.84400000000005 111.58799999999998 207.45200000000006 107.27199999999998 206.42400000000006 C 102.78799999999998 205.35600000000005 97.93199999999997 207.18000000000006 94.93999999999997 211.09200000000007 C 94.09199999999997 212.20400000000006 93.39999999999996 213.84000000000006 92.87599999999998 215.73200000000006 C 88.78399999999998 209.60400000000004 83.26799999999997 203.08400000000006 76.30799999999998 198.60400000000004 C 71.53199999999998 195.52800000000005 66.65199999999997 193.80400000000003 62.083999999999975 192.86800000000005 C 61.98399999999997 191.12400000000005 61.891999999999975 189.38000000000005 61.891999999999975 187.60800000000006 C 61.891999999999975 176.69200000000006 63.723999999999975 166.11600000000007 67.07599999999998 156.29200000000006 C 70.77199999999998 157.34000000000006 74.54799999999997 157.90800000000007 78.33199999999998 157.90800000000007 L 79.48399999999998 157.90800000000007 C 90.45999999999998 157.90800000000007 101.20399999999998 153.45600000000007 108.95599999999999 145.69600000000008 C 109.01599999999999 145.63600000000008 109.07199999999999 145.5720000000001 109.136 145.5080000000001 L 101.50399999999999 176.6320000000001 C 101.428 176.9360000000001 101.61599999999999 177.24400000000009 101.91999999999999 177.32000000000008 C 101.96799999999999 177.33200000000008 102.01199999999999 177.33600000000007 102.05599999999998 177.33600000000007 C 102.30799999999998 177.33600000000007 102.54399999999998 177.16400000000007 102.60799999999999 176.90800000000007 L 110.47999999999999 144.80800000000008 C 118.19999999999999 151.77600000000007 127.964 155.60400000000007 138.212 155.60400000000007 C 148.29999999999998 155.60400000000007 158 151.86800000000008 165.684 145.05600000000007 C 165.892 145.27200000000008 166.1 145.48400000000007 166.304 145.69600000000005 L 166.624 146.01600000000005 L 174.2 176.90800000000004 C 174.26399999999998 177.16400000000004 174.49599999999998 177.33600000000004 174.75199999999998 177.33600000000004 C 174.796 177.33600000000004 174.83999999999997 177.33200000000005 174.88799999999998 177.32000000000005 C 175.188 177.24400000000006 175.37599999999998 176.93600000000006 175.30399999999997 176.63200000000006 L 168.14399999999998 147.44000000000005 C 178.94799999999998 157.75200000000007 195.20799999999997 161.61200000000005 209.59599999999998 157.02400000000006 C 212.788 166.64 214.528 176.964 214.528 187.608 z M 211.612 150.908 C 210.912 149.11999999999998 210.164 147.356 209.364 145.628 C 209.936 145.516 210.508 145.396 211.024 145.22799999999998 C 215.18 143.86399999999998 216.39600000000002 142.90399999999997 220.004 140.04399999999998 C 221.26 139.04399999999998 221.91199999999998 137.89999999999998 221.932 136.64 C 221.97199999999998 134.55999999999997 220.22 133.04 220.188 133.016 L 199.37599999999998 112.464 L 199.31599999999997 114.42 C 199.29999999999998 114.932 199.10799999999998 121.66 198.95599999999996 128.4 C 198.89999999999995 128.328 198.84399999999997 128.252 198.78799999999995 128.18 L 198.60399999999996 112.56800000000001 L 197.18799999999996 113.91600000000001 C 196.92399999999995 114.168 194.39999999999995 116.57600000000001 191.23599999999996 119.61200000000001 C 191.14399999999995 119.52000000000001 191.05599999999995 119.42800000000001 190.96399999999997 119.34 L 197.97199999999998 112.08800000000001 L 196.04799999999997 112.028 C 195.53599999999997 112.012 188.71599999999998 111.816 181.96799999999996 111.66000000000001 C 181.87999999999997 111.59600000000002 181.79599999999996 111.52400000000002 181.70399999999995 111.46000000000001 L 197.87599999999995 111.296 L 196.56399999999994 109.884 C 195.91999999999993 109.188 180.69599999999994 92.832 177.78799999999993 90.072 C 176.89199999999994 89.22800000000001 175.80799999999994 88.892 174.53999999999994 89.108 C 171.62799999999993 89.616 168.35599999999994 93.244 166.75999999999993 96.40400000000001 C 164.76399999999992 100.33600000000001 164.57599999999994 101.88400000000001 164.01999999999992 106.48000000000002 C 163.97999999999993 106.79200000000002 164.04399999999993 107.04400000000001 164.05599999999993 107.32800000000002 L 157.75599999999991 107.32800000000002 C 159.8959999999999 86.48400000000001 177.4799999999999 70.15200000000002 198.87599999999992 70.15200000000002 C 221.71599999999992 70.15200000000002 240.29599999999994 88.73600000000002 240.29599999999994 111.57200000000002 C 240.296 129.96 228.224 145.516 211.612 150.908 z" stroke-linecap="round" />
</g>
		<g transform="matrix(2.88 0 0 2.88 139.26 -130.61)"  >
<path style="stroke: none; stroke-width: 1; stroke-dasharray: none; stroke-linecap: butt; stroke-dashoffset: 0; stroke-linejoin: miter; stroke-miterlimit: 4; fill: rgb(255,255,255); fill-rule: nonzero; opacity: 1;" vector-effect="non-scaling-stroke"  transform=" translate(-187.56, -93.7)" d="M 196.944 78.952 C 194.64 77.348 190.06799999999998 77.58 186.928 78.608 C 182.984 79.9 181.744 80.884 178.428 83.512 C 177.24 84.46 176.62 85.54 176.6 86.732 C 176.564 88.7 178.22 90.136 178.248 90.16 L 197.94799999999998 109.604 L 198.004 107.756 C 198.028 106.856 198.636 85.616 198.512 81.804 C 198.472 80.628 197.928 79.64 196.944 78.952 z M 196.44 105.86 L 179.336 88.976 C 179.32000000000002 88.964 178.18800000000002 87.956 178.20800000000003 86.76 C 178.22000000000003 86.072 178.62800000000001 85.40400000000001 179.42400000000004 84.77600000000001 C 182.75200000000004 82.13600000000001 183.75600000000003 81.34 187.42800000000003 80.13600000000001 C 188.824 79.67600000000002 190.56400000000002 79.39600000000002 192.16800000000003 79.39600000000002 C 193.72000000000003 79.39600000000002 195.14800000000002 79.66000000000001 196.02400000000003 80.26800000000001 C 196.59200000000004 80.66800000000002 196.88000000000002 81.18400000000001 196.90000000000003 81.85200000000002 C 197.004 84.968 196.592 100.468 196.44 105.86 z" stroke-linecap="round" />
</g>
		<g transform="matrix(2.88 0 0 2.88 202.21 -132.78)"  >
<path style="stroke: none; stroke-width: 1; stroke-dasharray: none; stroke-linecap: butt; stroke-dashoffset: 0; stroke-linejoin: miter; stroke-miterlimit: 4; fill: rgb(255,255,255); fill-rule: nonzero; opacity: 1;" vector-effect="non-scaling-stroke"  transform=" translate(-209.46, -92.94)" d="M 219.164 89.82 C 219.964 88.94399999999999 220.272 87.83999999999999 220.064 86.624 C 219.572 83.77199999999999 216.144 80.576 213.168 79.012 C 209.44 77.06 207.976 76.88 203.632 76.34 C 202.12 76.152 200.916 76.48400000000001 200.06 77.324 C 198.62800000000001 78.724 198.796 81 198.8 81.03999999999999 L 199.12400000000002 109.6 L 200.47600000000003 108.29199999999999 C 201.128 107.656 216.56 92.684 219.164 89.82 z M 201.184 78.52 C 201.572 78.14 202.132 77.948 202.84799999999998 77.948 C 203.03199999999998 77.948 203.22799999999998 77.96 203.432 77.988 C 207.672 78.516 208.94799999999998 78.676 212.416 80.488 C 215.024 81.86 218.076 84.704 218.46 86.916 C 218.584 87.61999999999999 218.424 88.204 217.96800000000002 88.7 C 215.84400000000002 91.036 204.62 101.976 200.704 105.78800000000001 L 200.42000000000002 80.96400000000001 C 200.42 80.948 200.316 79.368 201.184 78.52 z" stroke-linecap="round" />
</g>
		<g transform="matrix(2.88 0 0 2.88 221.08 -113.61)"  >
<path style="stroke: none; stroke-width: 1; stroke-dasharray: none; stroke-linecap: butt; stroke-dashoffset: 0; stroke-linejoin: miter; stroke-miterlimit: 4; fill: rgb(255,255,255); fill-rule: nonzero; opacity: 1;" vector-effect="non-scaling-stroke"  transform=" translate(-216.02, -99.61)" d="M 226.624 110.952 C 227.27599999999998 110.952 227.804 110.948 228.168 110.93599999999999 C 229.356 110.89599999999999 230.356 110.348 231.06 109.36 C 232.732 107.004 232.508 102.244 231.444 98.96 C 230.11999999999998 94.88 229.11599999999999 93.59599999999999 226.432 90.16399999999999 C 225.464 88.92799999999998 224.35199999999998 88.29199999999999 223.13199999999998 88.27599999999998 C 223.10799999999998 88.27199999999998 223.09199999999998 88.27199999999998 223.07199999999997 88.27199999999998 C 221.08399999999997 88.27199999999998 219.64 89.95599999999997 219.61599999999999 89.98799999999997 L 199.76799999999997 110.35599999999997 L 201.64799999999997 110.41199999999996 C 202.48 110.432 220.36 110.952 226.624 110.952 z M 220.852 91.088 C 220.864 91.076 221.868 89.91999999999999 223.068 89.91999999999999 C 223.07600000000002 89.91999999999999 223.08800000000002 89.91999999999999 223.10000000000002 89.91999999999999 C 223.79600000000002 89.93199999999999 224.47600000000003 90.356 225.12000000000003 91.17199999999998 C 227.81600000000003 94.61599999999999 228.62800000000004 95.65999999999998 229.86400000000003 99.45999999999998 C 230.79200000000003 102.33999999999997 230.99200000000002 106.57999999999998 229.70000000000005 108.41199999999998 C 229.29600000000005 108.97599999999997 228.78000000000006 109.25999999999998 228.11600000000004 109.28399999999998 C 224.92800000000005 109.41999999999997 209.08000000000004 108.96799999999998 203.57600000000005 108.81599999999997 L 220.852 91.088 z" stroke-linecap="round" />
</g>
		<g transform="matrix(2.88 0 0 2.88 224.37 -47.92)"  >
<path style="stroke: none; stroke-width: 1; stroke-dasharray: none; stroke-linecap: butt; stroke-dashoffset: 0; stroke-linejoin: miter; stroke-miterlimit: 4; fill: rgb(255,255,255); fill-rule: nonzero; opacity: 1;" vector-effect="non-scaling-stroke"  transform=" translate(-217.17, -122.46)" d="M 232.724 112.772 C 231.32 111.32400000000001 229.06799999999998 111.49600000000001 229.036 111.5 L 200.552 111.836 L 201.84 113.208 C 202.476 113.88 217.412 129.76 220.268 132.436 C 220.968 133.092 221.812 133.43200000000002 222.74 133.43200000000002 C 222.972 133.43200000000002 223.208 133.40800000000002 223.448 133.36800000000002 C 226.304 132.87600000000003 229.50400000000002 129.34000000000003 231.068 126.26800000000003 C 233.01600000000002 122.43600000000004 233.21200000000002 120.81200000000003 233.73600000000002 116.46800000000003 C 233.924 114.896 233.58 113.656 232.724 112.772 z M 232.08 116.272 C 231.556 120.632 231.39200000000002 121.94800000000001 229.584 125.524 C 228.212 128.216 225.368 131.36 223.16400000000002 131.744 C 222.472 131.86 221.912 131.708 221.41600000000003 131.24 C 219.08400000000003 129.048 208.13200000000003 117.46400000000001 204.348 113.45200000000001 L 229.11200000000002 113.156 C 229.12400000000002 113.156 230.68000000000004 113.048 231.52800000000002 113.932 C 232.02 114.436 232.204 115.228 232.08 116.272 z" stroke-linecap="round" />
</g>
</g>
</g>
</svg>